<svg width="30" height="30" viewBox="0 0 30 30" fill="none" xmlns="http://www.w3.org/2000/svg">
<g clip-path="url(#clip0)">
<rect width="30" height="30" fill="white"/>
<rect y="0.000244141" width="30" height="30" fill="#007ACC"/>
<path d="M10.2612 25.6265L10.8706 23.8672H11.1782L10.3872 26H10.1382L9.34863 23.8672H9.65479L10.2612 25.6265ZM12.0938 25.0493C11.8525 24.98 11.6768 24.895 11.5664 24.7944C11.457 24.6929 11.4023 24.5679 11.4023 24.4194C11.4023 24.2515 11.4692 24.1128 11.603 24.0034C11.7378 23.8931 11.9126 23.8379 12.1274 23.8379C12.2739 23.8379 12.4043 23.8662 12.5186 23.9229C12.6338 23.9795 12.7227 24.0576 12.7852 24.1572C12.8486 24.2568 12.8804 24.3657 12.8804 24.4839H12.5977C12.5977 24.355 12.5566 24.2539 12.4746 24.1807C12.3926 24.1064 12.2769 24.0693 12.1274 24.0693C11.9888 24.0693 11.8804 24.1001 11.8022 24.1616C11.7251 24.2222 11.6865 24.3066 11.6865 24.415C11.6865 24.502 11.7231 24.5757 11.7964 24.6362C11.8706 24.6958 11.9961 24.7505 12.1729 24.8003C12.3506 24.8501 12.4893 24.9053 12.5889 24.9658C12.6895 25.0254 12.7637 25.0952 12.8115 25.1753C12.8604 25.2554 12.8848 25.3496 12.8848 25.458C12.8848 25.6309 12.8174 25.7695 12.6826 25.874C12.5479 25.9775 12.3677 26.0293 12.1421 26.0293C11.9956 26.0293 11.8589 26.0015 11.7319 25.9458C11.605 25.8892 11.5068 25.812 11.4375 25.7144C11.3691 25.6167 11.335 25.5059 11.335 25.3818H11.6177C11.6177 25.5107 11.665 25.6128 11.7598 25.688C11.8555 25.7622 11.9829 25.7993 12.1421 25.7993C12.2905 25.7993 12.4043 25.769 12.4834 25.7085C12.5625 25.6479 12.6021 25.5654 12.6021 25.4609C12.6021 25.3564 12.5654 25.2759 12.4922 25.2192C12.4189 25.1616 12.2861 25.105 12.0938 25.0493ZM15.5596 25.3232C15.5332 25.5488 15.4497 25.7231 15.3091 25.8462C15.1694 25.9683 14.9834 26.0293 14.751 26.0293C14.499 26.0293 14.2969 25.939 14.1445 25.7583C13.9932 25.5776 13.9175 25.3359 13.9175 25.0332V24.8281C13.9175 24.6299 13.9526 24.4556 14.0229 24.3052C14.0942 24.1548 14.1948 24.0396 14.3247 23.9595C14.4546 23.8784 14.605 23.8379 14.7759 23.8379C15.0024 23.8379 15.1841 23.9014 15.3208 24.0283C15.4575 24.1543 15.5371 24.3291 15.5596 24.5527H15.2769C15.2524 24.3828 15.1992 24.2598 15.1172 24.1836C15.0361 24.1074 14.9224 24.0693 14.7759 24.0693C14.5962 24.0693 14.4551 24.1357 14.3525 24.2686C14.251 24.4014 14.2002 24.5903 14.2002 24.8354V25.042C14.2002 25.2734 14.2485 25.4575 14.3452 25.5942C14.4419 25.731 14.5771 25.7993 14.751 25.7993C14.9072 25.7993 15.0269 25.7642 15.1099 25.6938C15.1938 25.6226 15.2495 25.499 15.2769 25.3232H15.5596ZM15.8306 25.1929C15.8306 25.0376 15.8608 24.8979 15.9214 24.7739C15.9829 24.6499 16.0679 24.5542 16.1763 24.4868C16.2856 24.4194 16.4102 24.3857 16.5498 24.3857C16.7656 24.3857 16.9399 24.4604 17.0728 24.6099C17.2065 24.7593 17.2734 24.958 17.2734 25.2061V25.2251C17.2734 25.3794 17.2437 25.5181 17.1841 25.6411C17.1255 25.7632 17.041 25.8584 16.9307 25.9268C16.8213 25.9951 16.6953 26.0293 16.5527 26.0293C16.3379 26.0293 16.1636 25.9546 16.0298 25.8052C15.897 25.6558 15.8306 25.458 15.8306 25.2119V25.1929ZM16.103 25.2251C16.103 25.4009 16.1436 25.542 16.2246 25.6484C16.3066 25.7549 16.416 25.8081 16.5527 25.8081C16.6904 25.8081 16.7998 25.7544 16.8809 25.647C16.9619 25.5386 17.0024 25.3872 17.0024 25.1929C17.0024 25.019 16.9609 24.8784 16.8779 24.771C16.7959 24.6626 16.6865 24.6084 16.5498 24.6084C16.416 24.6084 16.3081 24.6616 16.2261 24.7681C16.144 24.8745 16.103 25.0269 16.103 25.2251ZM17.5474 25.1943C17.5474 24.9512 17.605 24.7559 17.7202 24.6084C17.8354 24.46 17.9863 24.3857 18.1729 24.3857C18.3584 24.3857 18.5054 24.4492 18.6138 24.5762V23.75H18.8848V26H18.6357L18.6226 25.8301C18.5142 25.9629 18.3633 26.0293 18.1699 26.0293C17.9863 26.0293 17.8364 25.9541 17.7202 25.8037C17.605 25.6533 17.5474 25.457 17.5474 25.2148V25.1943ZM17.8184 25.2251C17.8184 25.4048 17.8555 25.5454 17.9297 25.647C18.0039 25.7485 18.1064 25.7993 18.2373 25.7993C18.4092 25.7993 18.5347 25.7222 18.6138 25.5679V24.8398C18.5327 24.6904 18.4082 24.6157 18.2402 24.6157C18.1074 24.6157 18.0039 24.667 17.9297 24.7695C17.8555 24.8721 17.8184 25.0239 17.8184 25.2251ZM19.9644 26.0293C19.7495 26.0293 19.5747 25.959 19.4399 25.8184C19.3052 25.6768 19.2378 25.4878 19.2378 25.2515V25.2017C19.2378 25.0444 19.2676 24.9043 19.3271 24.7812C19.3877 24.6572 19.4717 24.5605 19.5791 24.4912C19.6875 24.4209 19.8047 24.3857 19.9307 24.3857C20.1367 24.3857 20.2969 24.4536 20.4111 24.5894C20.5254 24.7251 20.5825 24.9194 20.5825 25.1724V25.2852H19.5088C19.5127 25.4414 19.5581 25.5679 19.645 25.6646C19.7329 25.7603 19.8442 25.8081 19.979 25.8081C20.0747 25.8081 20.1558 25.7886 20.2222 25.7495C20.2886 25.7104 20.3467 25.6587 20.3965 25.5942L20.562 25.7231C20.4292 25.9272 20.23 26.0293 19.9644 26.0293ZM19.9307 24.6084C19.8213 24.6084 19.7295 24.6484 19.6553 24.7285C19.5811 24.8076 19.5352 24.9189 19.5176 25.0625H20.3115V25.042C20.3037 24.9043 20.2666 24.7979 20.2002 24.7227C20.1338 24.6465 20.0439 24.6084 19.9307 24.6084Z" fill="white"/>
<path d="M24.3271 4.00939L20.4163 2.11774C20.1953 2.01075 19.9467 1.97549 19.7048 2.01683C19.463 2.05818 19.2399 2.1741 19.0665 2.34853L11.5775 9.21638L8.31586 6.72708C8.16871 6.61488 7.98714 6.55799 7.80263 6.56628C7.61813 6.57456 7.44232 6.6475 7.30571 6.77244L6.25914 7.72901C6.17759 7.80354 6.11241 7.89436 6.06779 7.99567C6.02316 8.09698 6.00007 8.20654 6 8.31734C5.99993 8.42813 6.02287 8.53772 6.06735 8.63909C6.11184 8.74046 6.1769 8.83138 6.25835 8.90601L9.08694 11.5004L6.25835 14.0947C6.1769 14.1693 6.11184 14.2603 6.06735 14.3616C6.02287 14.463 5.99993 14.5726 6 14.6834C6.00007 14.7942 6.02316 14.9037 6.06779 15.005C6.11241 15.1064 6.17759 15.1972 6.25914 15.2717L7.3065 16.2275C7.44312 16.3524 7.61892 16.4254 7.80343 16.4336C7.98793 16.4419 8.16951 16.385 8.31666 16.2728L11.5783 13.7835L19.0673 20.6514C19.2405 20.8259 19.4635 20.9418 19.7052 20.9832C19.9469 21.0245 20.1954 20.9892 20.4163 20.8822L24.3287 18.9905C24.53 18.8929 24.6997 18.7401 24.8185 18.5498C24.9373 18.3594 25.0002 18.1393 25 17.9146V5.08532C25 4.86048 24.9369 4.6402 24.8178 4.44985C24.6988 4.2595 24.5287 4.10682 24.3271 4.00939ZM20.2532 15.8359L14.5707 11.5004L20.2532 7.16478V15.8359V15.8359Z" fill="white"/>
</g>
<defs>
<clipPath id="clip0">
<rect width="30" height="30" fill="white"/>
</clipPath>
</defs>
</svg>
