<svg width="30" height="30" viewBox="0 0 30 30" fill="none" xmlns="http://www.w3.org/2000/svg">
<g clip-path="url(#clip0)">
<rect width="30" height="30" fill="white"/>
<rect y="0.000244141" width="30" height="30" fill="#F05032"/>
<path d="M14.9443 25.7202C14.8721 25.8237 14.771 25.9014 14.6411 25.9531C14.5122 26.0039 14.3618 26.0293 14.1899 26.0293C14.0161 26.0293 13.8618 25.9888 13.7271 25.9077C13.5923 25.8257 13.4878 25.7095 13.4136 25.5591C13.3403 25.4087 13.3027 25.2344 13.3008 25.0361V24.8501C13.3008 24.5288 13.3755 24.2798 13.5249 24.103C13.6753 23.9263 13.8862 23.8379 14.1577 23.8379C14.3804 23.8379 14.5596 23.895 14.6953 24.0093C14.8311 24.1226 14.9141 24.2837 14.9443 24.4927H14.6631C14.6104 24.2104 14.4424 24.0693 14.1592 24.0693C13.9707 24.0693 13.8276 24.1357 13.73 24.2686C13.6333 24.4004 13.5845 24.5918 13.5835 24.8428V25.0171C13.5835 25.2563 13.6382 25.4468 13.7476 25.5884C13.8569 25.729 14.0049 25.7993 14.1914 25.7993C14.2969 25.7993 14.3892 25.7876 14.4683 25.7642C14.5474 25.7407 14.6128 25.7012 14.6646 25.6455V25.1665H14.1709V24.938H14.9443V25.7202ZM15.6665 26H15.3955V24.415H15.6665V26ZM15.3735 23.9946C15.3735 23.9507 15.3867 23.9136 15.4131 23.8833C15.4404 23.853 15.4805 23.8379 15.5332 23.8379C15.5859 23.8379 15.626 23.853 15.6533 23.8833C15.6807 23.9136 15.6943 23.9507 15.6943 23.9946C15.6943 24.0386 15.6807 24.0752 15.6533 24.1045C15.626 24.1338 15.5859 24.1484 15.5332 24.1484C15.4805 24.1484 15.4404 24.1338 15.4131 24.1045C15.3867 24.0752 15.3735 24.0386 15.3735 23.9946ZM16.4692 24.0312V24.415H16.7651V24.6245H16.4692V25.6074C16.4692 25.6709 16.4824 25.7188 16.5088 25.751C16.5352 25.7822 16.5801 25.7979 16.6436 25.7979C16.6748 25.7979 16.7178 25.792 16.7725 25.7803V26C16.7012 26.0195 16.6318 26.0293 16.5645 26.0293C16.4434 26.0293 16.3521 25.9927 16.2905 25.9194C16.229 25.8462 16.1982 25.7422 16.1982 25.6074V24.6245H15.9097V24.415H16.1982V24.0312H16.4692Z" fill="white"/>
<path d="M24.6408 10.653L16.3448 2.35803C15.8666 1.88066 15.0924 1.88066 14.6126 2.35803L12.8939 4.07988L15.0789 6.26486C15.5896 6.09465 16.1706 6.20945 16.5744 6.61398C16.9829 7.02169 17.0953 7.60989 16.9212 8.11813L19.0254 10.2239C19.5361 10.0474 20.1235 10.1622 20.5296 10.5683C21.1004 11.1383 21.1004 12.0598 20.5296 12.6298C19.9604 13.199 19.0405 13.199 18.4713 12.6298C18.0445 12.2015 17.9377 11.5713 18.1514 11.0496L16.1809 9.0895V14.2551C16.3203 14.3232 16.4517 14.4158 16.5673 14.5306C17.1317 15.1014 17.1317 16.0213 16.5673 16.5889C15.9981 17.1597 15.0718 17.1597 14.5018 16.5889C13.9326 16.0197 13.9326 15.1014 14.5018 14.5321C14.6459 14.3897 14.8082 14.282 14.9808 14.2107V8.9945C14.809 8.92246 14.6451 8.81875 14.5058 8.67704C14.0743 8.24559 13.9706 7.61464 14.1923 7.0866L12.0452 4.92933L6.35625 10.6142C5.88125 11.0932 5.88125 11.8682 6.35625 12.3472L14.653 20.6414C15.1312 21.1195 15.9054 21.1195 16.3836 20.6414L24.6408 12.3844C25.1197 11.907 25.1197 11.132 24.6408 10.653" fill="white"/>
</g>
<defs>
<clipPath id="clip0">
<rect width="30" height="30" fill="white"/>
</clipPath>
</defs>
</svg>
