<svg width="30" height="30" viewBox="0 0 30 30" fill="none" xmlns="http://www.w3.org/2000/svg">
<g clip-path="url(#clip0)">
<rect width="30" height="30" fill="white"/>
<rect y="0.000244141" width="30" height="30" fill="#3178C6"/>
<rect width="17" height="19" transform="translate(7 2)" fill="#3178C6"/>
<path d="M7.79687 2C7.35558 2 7 2.39742 7 2.89063V20.1094C7 20.6026 7.35558 21 7.79687 21H23.2031C23.6444 21 24 20.6026 24 20.1094V2.89063C24 2.39742 23.6444 2 23.2031 2H7.79687ZM20.0957 9.71875C20.5292 9.71875 20.9131 9.74804 21.2481 9.80663C21.5641 9.85954 21.8742 9.94977 22.1732 10.0758V12.0217C22.0297 11.9108 21.8772 11.8151 21.7177 11.7359C21.5533 11.6532 21.3835 11.5844 21.2099 11.5301C20.8809 11.4276 20.5413 11.3744 20.1998 11.3718C19.9873 11.3718 19.7939 11.3939 19.6197 11.4398C19.4644 11.477 19.3154 11.5416 19.1784 11.6314C19.058 11.7138 18.9659 11.8127 18.9 11.9275C18.8337 12.0432 18.7993 12.1781 18.8008 12.3154C18.8008 12.4706 18.8384 12.6107 18.9113 12.7342C18.985 12.8577 19.0898 12.9749 19.2251 13.0857C19.3604 13.1965 19.5247 13.3042 19.7181 13.4103C19.9115 13.5172 20.1304 13.6272 20.374 13.7396C20.707 13.8956 21.0059 14.0618 21.2708 14.2368C21.5357 14.4125 21.7631 14.6112 21.9529 14.8329C22.1428 15.0538 22.2873 15.3063 22.3878 15.5905C22.4884 15.8748 22.5394 16.2049 22.5394 16.5825C22.5394 17.1026 22.4509 17.5404 22.2752 17.8935C22.1036 18.2417 21.8573 18.5369 21.5584 18.7525C21.2362 18.9808 20.8791 19.1407 20.5051 19.2243C20.1042 19.3193 19.6813 19.3668 19.2372 19.3668C18.8001 19.3689 18.3637 19.3255 17.9338 19.237C17.5619 19.1651 17.2012 19.0336 16.8628 18.8467V16.7646C17.503 17.3735 18.3151 17.7099 19.1557 17.7146C19.3916 17.7146 19.5977 17.6908 19.7734 17.6433C19.9498 17.5958 20.0964 17.5293 20.2147 17.4454C20.3322 17.3599 20.4201 17.2602 20.4789 17.1446C20.5439 17.01 20.5734 16.8576 20.5641 16.7051C20.5549 16.5525 20.5071 16.406 20.4265 16.2825C20.3212 16.1268 20.1925 15.9929 20.0461 15.8866C19.8645 15.7521 19.6733 15.6345 19.4745 15.5351C19.2388 15.4148 19.0009 15.2997 18.7612 15.19C18.1109 14.8867 17.6264 14.5155 17.307 14.0777C16.9882 13.6399 16.8281 13.1103 16.8281 12.4904C16.8281 12.0043 16.9153 11.5871 17.0895 11.238C17.2638 10.8888 17.5003 10.6015 17.8007 10.3758C18.1183 10.1416 18.471 9.97296 18.8419 9.87788C19.2527 9.76962 19.6736 9.71621 20.0957 9.71875V9.71875ZM9.39062 9.86758H16.1644V11.5823H13.7334V19.2188H11.8089V11.5823H9.39062V9.86758Z" fill="white"/>
<path d="M10.1489 24.0986H9.46338V26H9.18359V24.0986H8.49951V23.8672H10.1489V24.0986ZM10.8359 25.603L11.2051 24.415H11.4951L10.8579 26.2446C10.7593 26.5083 10.6025 26.6401 10.3877 26.6401L10.3364 26.6357L10.2354 26.6167V26.397L10.3086 26.4028C10.4004 26.4028 10.4717 26.3843 10.5225 26.3472C10.5742 26.3101 10.6167 26.2422 10.6499 26.1436L10.71 25.9824L10.1445 24.415H10.4404L10.8359 25.603ZM13.0771 25.2251C13.0771 25.4663 13.022 25.6606 12.9116 25.8081C12.8013 25.9556 12.6519 26.0293 12.4634 26.0293C12.271 26.0293 12.1196 25.9683 12.0093 25.8462V26.6094H11.7383V24.415H11.9858L11.999 24.5908C12.1094 24.4541 12.2627 24.3857 12.459 24.3857C12.6494 24.3857 12.7998 24.4575 12.9102 24.6011C13.0215 24.7446 13.0771 24.9443 13.0771 25.2002V25.2251ZM12.8062 25.1943C12.8062 25.0156 12.7681 24.8745 12.6919 24.771C12.6157 24.6675 12.5112 24.6157 12.3784 24.6157C12.2144 24.6157 12.0913 24.6885 12.0093 24.834V25.5913C12.0903 25.7358 12.2144 25.8081 12.3813 25.8081C12.5112 25.8081 12.6143 25.7568 12.6904 25.6543C12.7676 25.5508 12.8062 25.3975 12.8062 25.1943ZM14.0806 26.0293C13.8657 26.0293 13.6909 25.959 13.5562 25.8184C13.4214 25.6768 13.354 25.4878 13.354 25.2515V25.2017C13.354 25.0444 13.3838 24.9043 13.4434 24.7812C13.5039 24.6572 13.5879 24.5605 13.6953 24.4912C13.8037 24.4209 13.9209 24.3857 14.0469 24.3857C14.2529 24.3857 14.4131 24.4536 14.5273 24.5894C14.6416 24.7251 14.6987 24.9194 14.6987 25.1724V25.2852H13.625C13.6289 25.4414 13.6743 25.5679 13.7612 25.6646C13.8491 25.7603 13.9604 25.8081 14.0952 25.8081C14.1909 25.8081 14.272 25.7886 14.3384 25.7495C14.4048 25.7104 14.4629 25.6587 14.5127 25.5942L14.6782 25.7231C14.5454 25.9272 14.3462 26.0293 14.0806 26.0293ZM14.0469 24.6084C13.9375 24.6084 13.8457 24.6484 13.7715 24.7285C13.6973 24.8076 13.6514 24.9189 13.6338 25.0625H14.4277V25.042C14.4199 24.9043 14.3828 24.7979 14.3164 24.7227C14.25 24.6465 14.1602 24.6084 14.0469 24.6084ZM15.6846 25.0493C15.4434 24.98 15.2676 24.895 15.1572 24.7944C15.0479 24.6929 14.9932 24.5679 14.9932 24.4194C14.9932 24.2515 15.0601 24.1128 15.1938 24.0034C15.3286 23.8931 15.5034 23.8379 15.7183 23.8379C15.8647 23.8379 15.9951 23.8662 16.1094 23.9229C16.2246 23.9795 16.3135 24.0576 16.376 24.1572C16.4395 24.2568 16.4712 24.3657 16.4712 24.4839H16.1885C16.1885 24.355 16.1475 24.2539 16.0654 24.1807C15.9834 24.1064 15.8677 24.0693 15.7183 24.0693C15.5796 24.0693 15.4712 24.1001 15.3931 24.1616C15.3159 24.2222 15.2773 24.3066 15.2773 24.415C15.2773 24.502 15.314 24.5757 15.3872 24.6362C15.4614 24.6958 15.5869 24.7505 15.7637 24.8003C15.9414 24.8501 16.0801 24.9053 16.1797 24.9658C16.2803 25.0254 16.3545 25.0952 16.4023 25.1753C16.4512 25.2554 16.4756 25.3496 16.4756 25.458C16.4756 25.6309 16.4082 25.7695 16.2734 25.874C16.1387 25.9775 15.9585 26.0293 15.7329 26.0293C15.5864 26.0293 15.4497 26.0015 15.3228 25.9458C15.1958 25.8892 15.0977 25.812 15.0283 25.7144C14.96 25.6167 14.9258 25.5059 14.9258 25.3818H15.2085C15.2085 25.5107 15.2559 25.6128 15.3506 25.688C15.4463 25.7622 15.5737 25.7993 15.7329 25.7993C15.8813 25.7993 15.9951 25.769 16.0742 25.7085C16.1533 25.6479 16.1929 25.5654 16.1929 25.4609C16.1929 25.3564 16.1562 25.2759 16.083 25.2192C16.0098 25.1616 15.877 25.105 15.6846 25.0493ZM17.4307 25.8081C17.5273 25.8081 17.6118 25.7788 17.6841 25.7202C17.7563 25.6616 17.7964 25.5884 17.8042 25.5005H18.0605C18.0557 25.5913 18.0244 25.6777 17.9668 25.7598C17.9092 25.8418 17.832 25.9072 17.7354 25.9561C17.6396 26.0049 17.5381 26.0293 17.4307 26.0293C17.2148 26.0293 17.043 25.9575 16.915 25.814C16.7881 25.6694 16.7246 25.4722 16.7246 25.2222V25.1768C16.7246 25.0225 16.7529 24.8853 16.8096 24.7651C16.8662 24.645 16.9473 24.5518 17.0527 24.4854C17.1592 24.4189 17.2847 24.3857 17.4292 24.3857C17.6069 24.3857 17.7544 24.439 17.8716 24.5454C17.9897 24.6519 18.0527 24.79 18.0605 24.96H17.8042C17.7964 24.8574 17.7573 24.7734 17.687 24.708C17.6177 24.6416 17.5317 24.6084 17.4292 24.6084C17.2915 24.6084 17.1846 24.6582 17.1084 24.7578C17.0332 24.8564 16.9956 24.9995 16.9956 25.187V25.2383C16.9956 25.4209 17.0332 25.5615 17.1084 25.6602C17.1836 25.7588 17.291 25.8081 17.4307 25.8081ZM19.1313 24.6582C19.0903 24.6514 19.0459 24.6479 18.998 24.6479C18.8203 24.6479 18.6997 24.7236 18.6362 24.875V26H18.3652V24.415H18.6289L18.6333 24.5981C18.7222 24.4565 18.8481 24.3857 19.0112 24.3857C19.064 24.3857 19.104 24.3926 19.1313 24.4062V24.6582ZM19.6763 26H19.4053V24.415H19.6763V26ZM19.3833 23.9946C19.3833 23.9507 19.3965 23.9136 19.4229 23.8833C19.4502 23.853 19.4902 23.8379 19.543 23.8379C19.5957 23.8379 19.6357 23.853 19.6631 23.8833C19.6904 23.9136 19.7041 23.9507 19.7041 23.9946C19.7041 24.0386 19.6904 24.0752 19.6631 24.1045C19.6357 24.1338 19.5957 24.1484 19.543 24.1484C19.4902 24.1484 19.4502 24.1338 19.4229 24.1045C19.3965 24.0752 19.3833 24.0386 19.3833 23.9946ZM21.4502 25.2251C21.4502 25.4663 21.395 25.6606 21.2847 25.8081C21.1743 25.9556 21.0249 26.0293 20.8364 26.0293C20.644 26.0293 20.4927 25.9683 20.3823 25.8462V26.6094H20.1113V24.415H20.3589L20.3721 24.5908C20.4824 24.4541 20.6357 24.3857 20.832 24.3857C21.0225 24.3857 21.1729 24.4575 21.2832 24.6011C21.3945 24.7446 21.4502 24.9443 21.4502 25.2002V25.2251ZM21.1792 25.1943C21.1792 25.0156 21.1411 24.8745 21.0649 24.771C20.9888 24.6675 20.8843 24.6157 20.7515 24.6157C20.5874 24.6157 20.4644 24.6885 20.3823 24.834V25.5913C20.4634 25.7358 20.5874 25.8081 20.7544 25.8081C20.8843 25.8081 20.9873 25.7568 21.0635 25.6543C21.1406 25.5508 21.1792 25.3975 21.1792 25.1943ZM22.1636 24.0312V24.415H22.4595V24.6245H22.1636V25.6074C22.1636 25.6709 22.1768 25.7188 22.2031 25.751C22.2295 25.7822 22.2744 25.7979 22.3379 25.7979C22.3691 25.7979 22.4121 25.792 22.4668 25.7803V26C22.3955 26.0195 22.3262 26.0293 22.2588 26.0293C22.1377 26.0293 22.0464 25.9927 21.9849 25.9194C21.9233 25.8462 21.8926 25.7422 21.8926 25.6074V24.6245H21.604V24.415H21.8926V24.0312H22.1636Z" fill="white"/>
</g>
<defs>
<clipPath id="clip0">
<rect width="30" height="30" fill="white"/>
</clipPath>
</defs>
</svg>
