<svg width="30" height="30" viewBox="0 0 30 30" fill="none" xmlns="http://www.w3.org/2000/svg">
<g clip-path="url(#clip0)">
<rect width="30" height="30" fill="white"/>
<rect y="0.000244141" width="30" height="30" fill="#2496ED"/>
<path d="M11.0732 26V23.8672H11.6753C11.8608 23.8672 12.0249 23.9082 12.1675 23.9902C12.3101 24.0723 12.4199 24.189 12.4971 24.3403C12.5752 24.4917 12.6147 24.6655 12.6157 24.8618V24.998C12.6157 25.1992 12.5767 25.3755 12.4985 25.5269C12.4214 25.6782 12.3105 25.7944 12.166 25.8755C12.0225 25.9565 11.855 25.998 11.6636 26H11.0732ZM11.3545 24.0986V25.77H11.6504C11.8672 25.77 12.0356 25.7026 12.1558 25.5679C12.2769 25.4331 12.3374 25.2412 12.3374 24.9922V24.8677C12.3374 24.6255 12.2803 24.4375 12.166 24.3037C12.0527 24.1689 11.8916 24.1006 11.6826 24.0986H11.3545ZM12.9277 25.1929C12.9277 25.0376 12.958 24.8979 13.0186 24.7739C13.0801 24.6499 13.165 24.5542 13.2734 24.4868C13.3828 24.4194 13.5073 24.3857 13.647 24.3857C13.8628 24.3857 14.0371 24.4604 14.1699 24.6099C14.3037 24.7593 14.3706 24.958 14.3706 25.2061V25.2251C14.3706 25.3794 14.3408 25.5181 14.2812 25.6411C14.2227 25.7632 14.1382 25.8584 14.0278 25.9268C13.9185 25.9951 13.7925 26.0293 13.6499 26.0293C13.4351 26.0293 13.2607 25.9546 13.127 25.8052C12.9941 25.6558 12.9277 25.458 12.9277 25.2119V25.1929ZM13.2002 25.2251C13.2002 25.4009 13.2407 25.542 13.3218 25.6484C13.4038 25.7549 13.5132 25.8081 13.6499 25.8081C13.7876 25.8081 13.897 25.7544 13.978 25.647C14.0591 25.5386 14.0996 25.3872 14.0996 25.1929C14.0996 25.019 14.0581 24.8784 13.9751 24.771C13.8931 24.6626 13.7837 24.6084 13.647 24.6084C13.5132 24.6084 13.4053 24.6616 13.3232 24.7681C13.2412 24.8745 13.2002 25.0269 13.2002 25.2251ZM15.3462 25.8081C15.4429 25.8081 15.5273 25.7788 15.5996 25.7202C15.6719 25.6616 15.7119 25.5884 15.7197 25.5005H15.9761C15.9712 25.5913 15.9399 25.6777 15.8823 25.7598C15.8247 25.8418 15.7476 25.9072 15.6509 25.9561C15.5552 26.0049 15.4536 26.0293 15.3462 26.0293C15.1304 26.0293 14.9585 25.9575 14.8306 25.814C14.7036 25.6694 14.6401 25.4722 14.6401 25.2222V25.1768C14.6401 25.0225 14.6685 24.8853 14.7251 24.7651C14.7817 24.645 14.8628 24.5518 14.9683 24.4854C15.0747 24.4189 15.2002 24.3857 15.3447 24.3857C15.5225 24.3857 15.6699 24.439 15.7871 24.5454C15.9053 24.6519 15.9683 24.79 15.9761 24.96H15.7197C15.7119 24.8574 15.6729 24.7734 15.6025 24.708C15.5332 24.6416 15.4473 24.6084 15.3447 24.6084C15.207 24.6084 15.1001 24.6582 15.0239 24.7578C14.9487 24.8564 14.9111 24.9995 14.9111 25.187V25.2383C14.9111 25.4209 14.9487 25.5615 15.0239 25.6602C15.0991 25.7588 15.2065 25.8081 15.3462 25.8081ZM16.7231 25.2661L16.5532 25.4434V26H16.2822V23.75H16.5532V25.1108L16.6982 24.9365L17.1919 24.415H17.5215L16.9048 25.0771L17.5933 26H17.2754L16.7231 25.2661ZM18.4297 26.0293C18.2148 26.0293 18.04 25.959 17.9053 25.8184C17.7705 25.6768 17.7031 25.4878 17.7031 25.2515V25.2017C17.7031 25.0444 17.7329 24.9043 17.7925 24.7812C17.853 24.6572 17.937 24.5605 18.0444 24.4912C18.1528 24.4209 18.27 24.3857 18.396 24.3857C18.6021 24.3857 18.7622 24.4536 18.8765 24.5894C18.9907 24.7251 19.0479 24.9194 19.0479 25.1724V25.2852H17.9741C17.978 25.4414 18.0234 25.5679 18.1104 25.6646C18.1982 25.7603 18.3096 25.8081 18.4443 25.8081C18.54 25.8081 18.6211 25.7886 18.6875 25.7495C18.7539 25.7104 18.812 25.6587 18.8618 25.5942L19.0273 25.7231C18.8945 25.9272 18.6953 26.0293 18.4297 26.0293ZM18.396 24.6084C18.2866 24.6084 18.1948 24.6484 18.1206 24.7285C18.0464 24.8076 18.0005 24.9189 17.9829 25.0625H18.7769V25.042C18.769 24.9043 18.7319 24.7979 18.6655 24.7227C18.5991 24.6465 18.5093 24.6084 18.396 24.6084ZM20.1289 24.6582C20.0879 24.6514 20.0435 24.6479 19.9956 24.6479C19.8179 24.6479 19.6973 24.7236 19.6338 24.875V26H19.3628V24.415H19.6265L19.6309 24.5981C19.7197 24.4565 19.8457 24.3857 20.0088 24.3857C20.0615 24.3857 20.1016 24.3926 20.1289 24.4062V24.6582Z" fill="white"/>
<g clip-path="url(#clip1)">
<path d="M16.9046 10.7701H18.4056C18.4404 10.7701 18.4738 10.7547 18.4985 10.7273C18.5232 10.6998 18.5372 10.6626 18.5373 10.6237V9.12978C18.5373 9.09072 18.5235 9.05327 18.4988 9.02565C18.474 8.99804 18.4405 8.98252 18.4056 8.98252H16.9046C16.8699 8.98252 16.8366 8.99796 16.812 9.02542C16.7874 9.05289 16.7736 9.09014 16.7736 9.12898V10.6237C16.7736 10.7044 16.8324 10.7701 16.9046 10.7701ZM14.8122 6.47136H16.3125C16.3474 6.47136 16.3809 6.45584 16.4056 6.42823C16.4303 6.40062 16.4442 6.36316 16.4442 6.32411V4.82944C16.444 4.79053 16.4301 4.75328 16.4054 4.72583C16.3807 4.69839 16.3473 4.68298 16.3125 4.68298H14.8122C14.7775 4.68298 14.7441 4.69841 14.7196 4.72588C14.695 4.75335 14.6812 4.7906 14.6812 4.82944V6.32411C14.6812 6.40486 14.7393 6.47057 14.8122 6.47057V6.47136ZM14.8122 8.62073H16.3125C16.3474 8.62053 16.3808 8.60494 16.4054 8.57737C16.4301 8.54981 16.444 8.51247 16.4442 8.47348V6.97961C16.444 6.94069 16.4301 6.90344 16.4054 6.876C16.3807 6.84855 16.3473 6.83315 16.3125 6.83315H14.8122C14.7775 6.83315 14.7441 6.84858 14.7196 6.87605C14.695 6.90351 14.6812 6.94077 14.6812 6.97961V8.47348C14.6812 8.55423 14.7393 8.61994 14.8122 8.62073ZM12.7368 8.62073H14.2385C14.2732 8.62032 14.3063 8.60462 14.3307 8.57705C14.3551 8.54948 14.3688 8.51226 14.3688 8.47348V6.97961C14.3688 6.94077 14.355 6.90351 14.3304 6.87605C14.3058 6.84858 14.2725 6.83315 14.2378 6.83315H12.7375C12.7028 6.83315 12.6694 6.84858 12.6449 6.87605C12.6203 6.90351 12.6065 6.94077 12.6065 6.97961V8.47348C12.6065 8.55423 12.6653 8.61994 12.7375 8.62073H12.7368ZM10.638 8.62073H12.139C12.1738 8.62052 12.2071 8.60492 12.2317 8.57733C12.2562 8.54973 12.27 8.5124 12.27 8.47348V6.97961C12.27 6.94077 12.2562 6.90351 12.2316 6.87605C12.2071 6.84858 12.1737 6.83315 12.139 6.83315H10.638C10.6032 6.83315 10.5698 6.84855 10.5451 6.876C10.5204 6.90344 10.5064 6.94069 10.5063 6.97961V8.47348C10.5063 8.55423 10.5658 8.61994 10.638 8.62073ZM14.8122 10.7701H16.3125C16.3473 10.7701 16.3807 10.7547 16.4054 10.7273C16.4301 10.6998 16.444 10.6626 16.4442 10.6237V9.12978C16.4442 9.09072 16.4303 9.05327 16.4056 9.02565C16.3809 8.99804 16.3474 8.98252 16.3125 8.98252H14.8122C14.7775 8.98252 14.7441 8.99796 14.7196 9.02542C14.695 9.05289 14.6812 9.09014 14.6812 9.12898V10.6237C14.6812 10.7044 14.7393 10.7701 14.8122 10.7701ZM12.7368 10.7701H14.2385C14.2731 10.7699 14.3063 10.7544 14.3307 10.7269C14.3551 10.6995 14.3688 10.6624 14.3688 10.6237V9.12978C14.3689 9.11054 14.3656 9.09148 14.3591 9.07367C14.3526 9.05586 14.343 9.03965 14.3309 9.02598C14.3188 9.01231 14.3044 9.00143 14.2886 8.99398C14.2727 8.98652 14.2557 8.98263 14.2385 8.98252H12.7368C12.7022 8.98273 12.669 8.99826 12.6446 9.0257C12.6202 9.05314 12.6065 9.09028 12.6065 9.12898V10.6237C12.6065 10.7044 12.6653 10.7701 12.7375 10.7701H12.7368ZM10.638 10.7701H12.139C12.1737 10.7701 12.2071 10.7547 12.2316 10.7272C12.2562 10.6997 12.27 10.6625 12.27 10.6237V9.12978C12.2701 9.11054 12.2668 9.09148 12.2603 9.07367C12.2538 9.05586 12.2442 9.03965 12.2321 9.02598C12.22 9.01231 12.2056 9.00143 12.1898 8.99398C12.1739 8.98652 12.1569 8.98263 12.1397 8.98252H10.638C10.6031 8.98252 10.5696 8.99804 10.5449 9.02565C10.5201 9.05327 10.5063 9.09072 10.5063 9.12978V10.6237C10.5063 10.7044 10.5658 10.7701 10.638 10.7701ZM8.56968 10.7701H10.0713C10.106 10.7699 10.1391 10.7544 10.1635 10.7269C10.188 10.6995 10.2017 10.6624 10.2017 10.6237V9.12978C10.2018 9.11054 10.1985 9.09148 10.192 9.07367C10.1855 9.05586 10.1759 9.03965 10.1638 9.02598C10.1517 9.01231 10.1373 9.00143 10.1214 8.99398C10.1056 8.98652 10.0886 8.98263 10.0713 8.98252H8.56968C8.53505 8.98273 8.5019 8.99826 8.47748 9.0257C8.45305 9.05314 8.43934 9.09028 8.43935 9.12898V10.6237C8.43935 10.7044 8.49743 10.7701 8.57039 10.7701H8.56968ZM23.8321 9.82961C23.7861 9.78923 23.3561 9.42586 22.4481 9.42586C22.2086 9.42665 21.9692 9.44961 21.7326 9.49473C21.557 8.1489 20.5618 7.49182 20.5171 7.46332L20.2735 7.30578L20.1134 7.56465C19.9122 7.9114 19.7663 8.29457 19.6799 8.69673C19.517 9.46465 19.6161 10.1867 19.9653 10.8034C19.5439 11.0662 18.8674 11.1303 18.73 11.1359H7.53197C7.39138 11.1361 7.25657 11.1985 7.15703 11.3094C7.05748 11.4204 7.00128 11.5709 7.00072 11.728C6.9876 12.8244 7.15372 13.9141 7.49089 14.9438C7.87693 16.0743 8.45068 16.9071 9.19797 17.4169C10.0338 17.9893 11.3938 18.3171 12.9344 18.3171C13.6307 18.3194 14.3249 18.249 15.0098 18.1065C15.961 17.9112 16.8763 17.5395 17.7178 17.0069C18.412 16.558 19.0353 15.9872 19.5666 15.3159C20.4534 14.1933 20.9818 12.9432 21.3749 11.8325H21.5315C22.5033 11.8325 23.1004 11.3979 23.4298 11.0337C23.6487 10.8018 23.8194 10.5192 23.9306 10.2056L24 9.97765L23.8321 9.82961Z" fill="white"/>
</g>
</g>
<defs>
<clipPath id="clip0">
<rect width="30" height="30" fill="white"/>
</clipPath>
<clipPath id="clip1">
<rect width="17" height="19" fill="white" transform="translate(7 2)"/>
</clipPath>
</defs>
</svg>
