<svg width="30" height="30" viewBox="0 0 30 30" fill="none" xmlns="http://www.w3.org/2000/svg">
<g clip-path="url(#clip0)">
<rect width="30" height="30" fill="white"/>
<rect y="0.000244141" width="30" height="30" fill="#339933"/>
<path d="M15.4988 21C15.2424 21 14.9868 20.9335 14.7623 20.8045L12.4172 19.4293C12.0673 19.2354 12.2383 19.1665 12.3533 19.1261C12.8206 18.9654 12.9148 18.9282 13.414 18.648C13.466 18.6187 13.5347 18.6298 13.5882 18.6614L15.3902 19.7215C15.4557 19.7571 15.5475 19.7571 15.6074 19.7215L22.6325 15.703C22.698 15.6658 22.7396 15.5914 22.7396 15.5146V7.47927C22.7396 7.40089 22.6972 7.32727 22.6301 7.28768L15.6082 3.27239C15.5435 3.23519 15.4573 3.23519 15.3918 3.27239L8.37147 7.28848C8.30358 7.32727 8.26044 7.40327 8.26044 7.47927V15.5146C8.26044 15.5914 8.30358 15.6642 8.37147 15.7006L10.2957 16.8026C11.3397 17.3204 11.9795 16.7108 11.9795 16.0981V8.16484C11.9795 8.05243 12.0705 7.96455 12.1839 7.96455H13.0746C13.1856 7.96455 13.2783 8.05322 13.2783 8.16484V16.0981C13.2783 17.4795 12.5194 18.2712 11.1983 18.2712C10.7925 18.2712 10.4722 18.2712 9.57999 17.8349L7.73646 16.7844C7.28116 16.524 7 16.0363 7 15.5146V7.47927C7 6.95756 7.28196 6.4699 7.73646 6.21024L14.7615 2.18703C15.2065 1.93766 15.7967 1.93766 16.2377 2.18703L23.2619 6.21024C23.7172 6.47069 24 6.95756 24 7.47927V15.5146C24 16.0363 23.7172 16.5224 23.2619 16.7844L16.2377 20.8045C16.014 20.9335 15.7592 21 15.4988 21ZM21.1708 13.0779C21.1708 11.5737 20.1452 11.1731 17.9861 10.8905C15.8047 10.6047 15.5827 10.4567 15.5827 9.95082C15.5827 9.53283 15.7704 8.97471 17.3863 8.97471C18.8296 8.97471 19.3616 9.28266 19.5805 10.2469C19.5996 10.3379 19.6835 10.4044 19.7778 10.4044H20.6891C20.7459 10.4044 20.7994 10.3799 20.8377 10.3403C20.876 10.2976 20.8968 10.2429 20.8912 10.1852C20.7498 8.52425 19.6364 7.75001 17.3863 7.75001C15.383 7.75001 14.188 8.58759 14.188 9.99278C14.188 11.5167 15.3766 11.9379 17.2992 12.1263C19.5996 12.3495 19.7778 12.6828 19.7778 13.1309C19.7778 13.9091 19.1475 14.2408 17.6674 14.2408C15.8087 14.2408 15.3998 13.7785 15.2624 12.8618C15.2464 12.7636 15.1617 12.6915 15.0603 12.6915H14.1521C14.0395 12.6915 13.9492 12.7802 13.9492 12.8918C13.9492 14.0651 14.593 15.4631 17.6674 15.4631C19.8944 15.4639 21.1708 14.5955 21.1708 13.0779Z" fill="white"/>
<path d="M11.8867 26H11.604L10.5303 24.3564V26H10.2476V23.8672H10.5303L11.6069 25.5181V23.8672H11.8867V26ZM12.272 25.1929C12.272 25.0376 12.3022 24.8979 12.3628 24.7739C12.4243 24.6499 12.5093 24.5542 12.6177 24.4868C12.7271 24.4194 12.8516 24.3857 12.9912 24.3857C13.207 24.3857 13.3813 24.4604 13.5142 24.6099C13.6479 24.7593 13.7148 24.958 13.7148 25.2061V25.2251C13.7148 25.3794 13.6851 25.5181 13.6255 25.6411C13.5669 25.7632 13.4824 25.8584 13.3721 25.9268C13.2627 25.9951 13.1367 26.0293 12.9941 26.0293C12.7793 26.0293 12.605 25.9546 12.4712 25.8052C12.3384 25.6558 12.272 25.458 12.272 25.2119V25.1929ZM12.5444 25.2251C12.5444 25.4009 12.585 25.542 12.666 25.6484C12.748 25.7549 12.8574 25.8081 12.9941 25.8081C13.1318 25.8081 13.2412 25.7544 13.3223 25.647C13.4033 25.5386 13.4438 25.3872 13.4438 25.1929C13.4438 25.019 13.4023 24.8784 13.3193 24.771C13.2373 24.6626 13.1279 24.6084 12.9912 24.6084C12.8574 24.6084 12.7495 24.6616 12.6675 24.7681C12.5854 24.8745 12.5444 25.0269 12.5444 25.2251ZM13.9888 25.1943C13.9888 24.9512 14.0464 24.7559 14.1616 24.6084C14.2769 24.46 14.4277 24.3857 14.6143 24.3857C14.7998 24.3857 14.9468 24.4492 15.0552 24.5762V23.75H15.3262V26H15.0771L15.064 25.8301C14.9556 25.9629 14.8047 26.0293 14.6113 26.0293C14.4277 26.0293 14.2778 25.9541 14.1616 25.8037C14.0464 25.6533 13.9888 25.457 13.9888 25.2148V25.1943ZM14.2598 25.2251C14.2598 25.4048 14.2969 25.5454 14.3711 25.647C14.4453 25.7485 14.5479 25.7993 14.6787 25.7993C14.8506 25.7993 14.9761 25.7222 15.0552 25.5679V24.8398C14.9741 24.6904 14.8496 24.6157 14.6816 24.6157C14.5488 24.6157 14.4453 24.667 14.3711 24.7695C14.2969 24.8721 14.2598 25.0239 14.2598 25.2251ZM16.4058 26.0293C16.1909 26.0293 16.0161 25.959 15.8813 25.8184C15.7466 25.6768 15.6792 25.4878 15.6792 25.2515V25.2017C15.6792 25.0444 15.709 24.9043 15.7686 24.7812C15.8291 24.6572 15.9131 24.5605 16.0205 24.4912C16.1289 24.4209 16.2461 24.3857 16.3721 24.3857C16.5781 24.3857 16.7383 24.4536 16.8525 24.5894C16.9668 24.7251 17.0239 24.9194 17.0239 25.1724V25.2852H15.9502C15.9541 25.4414 15.9995 25.5679 16.0864 25.6646C16.1743 25.7603 16.2856 25.8081 16.4204 25.8081C16.5161 25.8081 16.5972 25.7886 16.6636 25.7495C16.73 25.7104 16.7881 25.6587 16.8379 25.5942L17.0034 25.7231C16.8706 25.9272 16.6714 26.0293 16.4058 26.0293ZM16.3721 24.6084C16.2627 24.6084 16.1709 24.6484 16.0967 24.7285C16.0225 24.8076 15.9766 24.9189 15.959 25.0625H16.7529V25.042C16.7451 24.9043 16.708 24.7979 16.6416 24.7227C16.5752 24.6465 16.4854 24.6084 16.3721 24.6084ZM17.3447 25.8579C17.3447 25.811 17.3584 25.772 17.3857 25.7407C17.4141 25.7095 17.4561 25.6938 17.5117 25.6938C17.5674 25.6938 17.6094 25.7095 17.6377 25.7407C17.667 25.772 17.6816 25.811 17.6816 25.8579C17.6816 25.9028 17.667 25.9404 17.6377 25.9707C17.6094 26.001 17.5674 26.0161 17.5117 26.0161C17.4561 26.0161 17.4141 26.001 17.3857 25.9707C17.3584 25.9404 17.3447 25.9028 17.3447 25.8579ZM18.4097 24.415V26.1831C18.4097 26.4878 18.2715 26.6401 17.9951 26.6401C17.9355 26.6401 17.8804 26.6313 17.8296 26.6138V26.397C17.8608 26.4048 17.9019 26.4087 17.9526 26.4087C18.0132 26.4087 18.0591 26.3921 18.0903 26.3589C18.1226 26.3267 18.1387 26.27 18.1387 26.189V24.415H18.4097ZM18.1108 23.9946C18.1108 23.9517 18.124 23.915 18.1504 23.8848C18.1777 23.8535 18.2173 23.8379 18.269 23.8379C18.3218 23.8379 18.3618 23.853 18.3892 23.8833C18.4165 23.9136 18.4302 23.9507 18.4302 23.9946C18.4302 24.0386 18.4165 24.0752 18.3892 24.1045C18.3618 24.1338 18.3218 24.1484 18.269 24.1484C18.2163 24.1484 18.1768 24.1338 18.1504 24.1045C18.124 24.0752 18.1108 24.0386 18.1108 23.9946ZM19.7705 25.5796C19.7705 25.5063 19.7427 25.4497 19.687 25.4097C19.6323 25.3687 19.5361 25.3335 19.3984 25.3042C19.2617 25.2749 19.1528 25.2397 19.0718 25.1987C18.9917 25.1577 18.9321 25.1089 18.8931 25.0522C18.855 24.9956 18.8359 24.9282 18.8359 24.8501C18.8359 24.7202 18.8906 24.6104 19 24.5205C19.1104 24.4307 19.251 24.3857 19.4219 24.3857C19.6016 24.3857 19.7471 24.4321 19.8584 24.5249C19.9707 24.6177 20.0269 24.7363 20.0269 24.8809H19.7544C19.7544 24.8066 19.7227 24.7427 19.6592 24.689C19.5967 24.6353 19.5176 24.6084 19.4219 24.6084C19.3232 24.6084 19.2461 24.6299 19.1904 24.6729C19.1348 24.7158 19.1069 24.772 19.1069 24.8413C19.1069 24.9067 19.1328 24.9561 19.1846 24.9893C19.2363 25.0225 19.3296 25.0542 19.4644 25.0845C19.6001 25.1147 19.71 25.1509 19.7939 25.1929C19.8779 25.2349 19.9399 25.2856 19.98 25.3452C20.021 25.4038 20.0415 25.4756 20.0415 25.5605C20.0415 25.7021 19.9849 25.8159 19.8716 25.9019C19.7583 25.9868 19.6113 26.0293 19.4307 26.0293C19.3037 26.0293 19.1914 26.0068 19.0938 25.9619C18.9961 25.917 18.9194 25.8545 18.8638 25.7744C18.8091 25.6934 18.7817 25.606 18.7817 25.5122H19.0527C19.0576 25.603 19.0938 25.6753 19.1611 25.729C19.2295 25.7817 19.3193 25.8081 19.4307 25.8081C19.5332 25.8081 19.6152 25.7876 19.6768 25.7466C19.7393 25.7046 19.7705 25.6489 19.7705 25.5796Z" fill="white"/>
</g>
<defs>
<clipPath id="clip0">
<rect width="30" height="30" fill="white"/>
</clipPath>
</defs>
</svg>
