<svg width="30" height="30" viewBox="0 0 30 30" fill="none" xmlns="http://www.w3.org/2000/svg">
<g clip-path="url(#clip0)">
<rect width="30" height="30" fill="white"/>
<rect y="0.000244141" width="30" height="30" fill="black"/>
<path d="M4.61572 23.8672H4.89844V25.3774C4.89844 25.5815 4.83691 25.7412 4.71387 25.8564C4.5918 25.9717 4.42871 26.0293 4.22461 26.0293C4.0127 26.0293 3.84766 25.9751 3.72949 25.8667C3.61133 25.7583 3.55225 25.6064 3.55225 25.4111H3.8335C3.8335 25.5332 3.8667 25.6284 3.93311 25.6968C4.00049 25.7651 4.09766 25.7993 4.22461 25.7993C4.34082 25.7993 4.43457 25.7627 4.50586 25.6895C4.57812 25.6162 4.61475 25.5137 4.61572 25.3818V23.8672ZM6.00586 25.0493C5.76465 24.98 5.58887 24.895 5.47852 24.7944C5.36914 24.6929 5.31445 24.5679 5.31445 24.4194C5.31445 24.2515 5.38135 24.1128 5.51514 24.0034C5.6499 23.8931 5.82471 23.8379 6.03955 23.8379C6.18604 23.8379 6.31641 23.8662 6.43066 23.9229C6.5459 23.9795 6.63477 24.0576 6.69727 24.1572C6.76074 24.2568 6.79248 24.3657 6.79248 24.4839H6.50977C6.50977 24.355 6.46875 24.2539 6.38672 24.1807C6.30469 24.1064 6.18896 24.0693 6.03955 24.0693C5.90088 24.0693 5.79248 24.1001 5.71436 24.1616C5.63721 24.2222 5.59863 24.3066 5.59863 24.415C5.59863 24.502 5.63525 24.5757 5.7085 24.6362C5.78271 24.6958 5.9082 24.7505 6.08496 24.8003C6.2627 24.8501 6.40137 24.9053 6.50098 24.9658C6.60156 25.0254 6.67578 25.0952 6.72363 25.1753C6.77246 25.2554 6.79688 25.3496 6.79688 25.458C6.79688 25.6309 6.72949 25.7695 6.59473 25.874C6.45996 25.9775 6.27979 26.0293 6.0542 26.0293C5.90771 26.0293 5.771 26.0015 5.64404 25.9458C5.51709 25.8892 5.41895 25.812 5.34961 25.7144C5.28125 25.6167 5.24707 25.5059 5.24707 25.3818H5.52979C5.52979 25.5107 5.57715 25.6128 5.67188 25.688C5.76758 25.7622 5.89502 25.7993 6.0542 25.7993C6.20264 25.7993 6.31641 25.769 6.39551 25.7085C6.47461 25.6479 6.51416 25.5654 6.51416 25.4609C6.51416 25.3564 6.47754 25.2759 6.4043 25.2192C6.33105 25.1616 6.19824 25.105 6.00586 25.0493ZM8.79932 25.0024C8.79932 25.2114 8.76416 25.394 8.69385 25.5503C8.62354 25.7056 8.52393 25.8242 8.39502 25.9062C8.26611 25.9883 8.11572 26.0293 7.94385 26.0293C7.77588 26.0293 7.62695 25.9883 7.49707 25.9062C7.36719 25.8232 7.26611 25.7056 7.19385 25.5532C7.12256 25.3999 7.08594 25.2227 7.08398 25.0215V24.8677C7.08398 24.6626 7.11963 24.4814 7.19092 24.3242C7.26221 24.167 7.36279 24.0469 7.49268 23.9639C7.62354 23.8799 7.77295 23.8379 7.94092 23.8379C8.11182 23.8379 8.26221 23.8794 8.39209 23.9624C8.52295 24.0444 8.62354 24.1641 8.69385 24.3213C8.76416 24.4775 8.79932 24.6597 8.79932 24.8677V25.0024ZM8.51953 24.8647C8.51953 24.6118 8.46875 24.418 8.36719 24.2832C8.26562 24.1475 8.12354 24.0796 7.94092 24.0796C7.76318 24.0796 7.62305 24.1475 7.52051 24.2832C7.41895 24.418 7.3667 24.6055 7.36377 24.8457V25.0024C7.36377 25.2476 7.41504 25.4404 7.51758 25.5811C7.62109 25.7207 7.76318 25.7905 7.94385 25.7905C8.12549 25.7905 8.26611 25.7246 8.36572 25.5928C8.46533 25.46 8.5166 25.27 8.51953 25.0229V24.8647ZM10.8604 26H10.5776L9.50391 24.3564V26H9.22119V23.8672H9.50391L10.5806 25.5181V23.8672H10.8604V26ZM12.564 25.3276L12.605 25.6089L12.665 25.3555L13.0869 23.8672H13.3242L13.7358 25.3555L13.7944 25.6133L13.8398 25.3262L14.1709 23.8672H14.4536L13.9365 26H13.6802L13.2407 24.4458L13.207 24.2832L13.1733 24.4458L12.7178 26H12.4614L11.9458 23.8672H12.2271L12.564 25.3276ZM15.3354 26.0293C15.1206 26.0293 14.9458 25.959 14.811 25.8184C14.6763 25.6768 14.6089 25.4878 14.6089 25.2515V25.2017C14.6089 25.0444 14.6387 24.9043 14.6982 24.7812C14.7588 24.6572 14.8428 24.5605 14.9502 24.4912C15.0586 24.4209 15.1758 24.3857 15.3018 24.3857C15.5078 24.3857 15.668 24.4536 15.7822 24.5894C15.8965 24.7251 15.9536 24.9194 15.9536 25.1724V25.2852H14.8799C14.8838 25.4414 14.9292 25.5679 15.0161 25.6646C15.104 25.7603 15.2153 25.8081 15.3501 25.8081C15.4458 25.8081 15.5269 25.7886 15.5933 25.7495C15.6597 25.7104 15.7178 25.6587 15.7676 25.5942L15.9331 25.7231C15.8003 25.9272 15.6011 26.0293 15.3354 26.0293ZM15.3018 24.6084C15.1924 24.6084 15.1006 24.6484 15.0264 24.7285C14.9521 24.8076 14.9062 24.9189 14.8887 25.0625H15.6826V25.042C15.6748 24.9043 15.6377 24.7979 15.5713 24.7227C15.5049 24.6465 15.415 24.6084 15.3018 24.6084ZM17.6104 25.2251C17.6104 25.4673 17.5547 25.6621 17.4434 25.8096C17.332 25.9561 17.1826 26.0293 16.9951 26.0293C16.7949 26.0293 16.6401 25.9585 16.5308 25.8169L16.5176 26H16.2686V23.75H16.5396V24.5894C16.6489 24.4536 16.7998 24.3857 16.9922 24.3857C17.1846 24.3857 17.3354 24.4585 17.4448 24.604C17.5552 24.7495 17.6104 24.9487 17.6104 25.2017V25.2251ZM17.3394 25.1943C17.3394 25.0098 17.3037 24.8672 17.2324 24.7666C17.1611 24.666 17.0586 24.6157 16.9248 24.6157C16.7461 24.6157 16.6177 24.6987 16.5396 24.8647V25.5503C16.6226 25.7163 16.752 25.7993 16.9277 25.7993C17.0576 25.7993 17.1587 25.749 17.231 25.6484C17.3032 25.5479 17.3394 25.3965 17.3394 25.1943ZM20.1548 24.0986H19.4692V26H19.1895V24.0986H18.5054V23.8672H20.1548V24.0986ZM20.2104 25.1929C20.2104 25.0376 20.2407 24.8979 20.3013 24.7739C20.3628 24.6499 20.4478 24.5542 20.5562 24.4868C20.6655 24.4194 20.79 24.3857 20.9297 24.3857C21.1455 24.3857 21.3198 24.4604 21.4526 24.6099C21.5864 24.7593 21.6533 24.958 21.6533 25.2061V25.2251C21.6533 25.3794 21.6235 25.5181 21.564 25.6411C21.5054 25.7632 21.4209 25.8584 21.3105 25.9268C21.2012 25.9951 21.0752 26.0293 20.9326 26.0293C20.7178 26.0293 20.5435 25.9546 20.4097 25.8052C20.2769 25.6558 20.2104 25.458 20.2104 25.2119V25.1929ZM20.4829 25.2251C20.4829 25.4009 20.5234 25.542 20.6045 25.6484C20.6865 25.7549 20.7959 25.8081 20.9326 25.8081C21.0703 25.8081 21.1797 25.7544 21.2607 25.647C21.3418 25.5386 21.3823 25.3872 21.3823 25.1929C21.3823 25.019 21.3408 24.8784 21.2578 24.771C21.1758 24.6626 21.0664 24.6084 20.9297 24.6084C20.7959 24.6084 20.688 24.6616 20.606 24.7681C20.5239 24.8745 20.4829 25.0269 20.4829 25.2251ZM22.4355 25.2661L22.2656 25.4434V26H21.9946V23.75H22.2656V25.1108L22.4106 24.9365L22.9043 24.415H23.2339L22.6172 25.0771L23.3057 26H22.9878L22.4355 25.2661ZM24.1421 26.0293C23.9272 26.0293 23.7524 25.959 23.6177 25.8184C23.4829 25.6768 23.4155 25.4878 23.4155 25.2515V25.2017C23.4155 25.0444 23.4453 24.9043 23.5049 24.7812C23.5654 24.6572 23.6494 24.5605 23.7568 24.4912C23.8652 24.4209 23.9824 24.3857 24.1084 24.3857C24.3145 24.3857 24.4746 24.4536 24.5889 24.5894C24.7031 24.7251 24.7603 24.9194 24.7603 25.1724V25.2852H23.6865C23.6904 25.4414 23.7358 25.5679 23.8228 25.6646C23.9106 25.7603 24.022 25.8081 24.1567 25.8081C24.2524 25.8081 24.3335 25.7886 24.3999 25.7495C24.4663 25.7104 24.5244 25.6587 24.5742 25.5942L24.7397 25.7231C24.6069 25.9272 24.4077 26.0293 24.1421 26.0293ZM24.1084 24.6084C23.999 24.6084 23.9072 24.6484 23.833 24.7285C23.7588 24.8076 23.7129 24.9189 23.6953 25.0625H24.4893V25.042C24.4814 24.9043 24.4443 24.7979 24.3779 24.7227C24.3115 24.6465 24.2217 24.6084 24.1084 24.6084ZM25.3315 24.415L25.3403 24.6143C25.4614 24.4619 25.6196 24.3857 25.8149 24.3857C26.1499 24.3857 26.3188 24.5747 26.3218 24.9526V26H26.0508V24.9512C26.0498 24.8369 26.0234 24.7524 25.9717 24.6978C25.9209 24.6431 25.8413 24.6157 25.7329 24.6157C25.645 24.6157 25.5679 24.6392 25.5015 24.686C25.4351 24.7329 25.3833 24.7944 25.3462 24.8706V26H25.0752V24.415H25.3315Z" fill="white"/>
<path d="M14.0721 2V7.111L15.5 9.068L16.9279 7.111V2H14.0721ZM16.9279 7.111V9.543L19.2315 8.783L22.2585 4.66L19.9359 2.969L16.9279 7.111ZM19.2315 8.783L17.8036 10.759L20.1263 11.5L25 9.923L24.1052 7.206L19.2315 8.783ZM20.1263 11.5L17.8036 12.241L19.2315 14.217L24.1052 15.794L25 13.077L20.1263 11.5ZM19.2315 14.217L16.9279 13.457V15.889L19.9359 20.031L22.2585 18.34L19.2315 14.217ZM16.9279 15.889L15.5 13.932L14.0721 15.889V21H16.9279V15.889ZM14.0721 15.889V13.457L11.7685 14.217L8.74148 18.34L11.0641 20.031L14.0721 15.889ZM11.7685 14.217L13.1964 12.241L10.8737 11.5L6 13.077L6.89479 15.794L11.7685 14.217ZM10.8737 11.5L13.1964 10.759L11.7685 8.783L6.89479 7.206L6 9.923L10.8737 11.5ZM11.7685 8.783L14.0721 9.543V7.111L11.0641 2.969L8.74148 4.66L11.7685 8.783Z" fill="white"/>
</g>
<defs>
<clipPath id="clip0">
<rect width="30" height="30" fill="white"/>
</clipPath>
</defs>
</svg>
