<svg width="30" height="30" viewBox="0 0 30 30" fill="none" xmlns="http://www.w3.org/2000/svg">
<g clip-path="url(#clip0)">
<rect width="30" height="30" fill="white"/>
<rect y="0.000244141" width="30" height="30" fill="#4B32C3"/>
<path d="M12.7197 25.0142H11.7954V25.77H12.8691V26H11.5142V23.8672H12.8545V24.0986H11.7954V24.7842H12.7197V25.0142ZM13.8477 25.0493C13.6064 24.98 13.4307 24.895 13.3203 24.7944C13.2109 24.6929 13.1562 24.5679 13.1562 24.4194C13.1562 24.2515 13.2231 24.1128 13.3569 24.0034C13.4917 23.8931 13.6665 23.8379 13.8813 23.8379C14.0278 23.8379 14.1582 23.8662 14.2725 23.9229C14.3877 23.9795 14.4766 24.0576 14.5391 24.1572C14.6025 24.2568 14.6343 24.3657 14.6343 24.4839H14.3516C14.3516 24.355 14.3105 24.2539 14.2285 24.1807C14.1465 24.1064 14.0308 24.0693 13.8813 24.0693C13.7427 24.0693 13.6343 24.1001 13.5562 24.1616C13.479 24.2222 13.4404 24.3066 13.4404 24.415C13.4404 24.502 13.4771 24.5757 13.5503 24.6362C13.6245 24.6958 13.75 24.7505 13.9268 24.8003C14.1045 24.8501 14.2432 24.9053 14.3428 24.9658C14.4434 25.0254 14.5176 25.0952 14.5654 25.1753C14.6143 25.2554 14.6387 25.3496 14.6387 25.458C14.6387 25.6309 14.5713 25.7695 14.4365 25.874C14.3018 25.9775 14.1216 26.0293 13.896 26.0293C13.7495 26.0293 13.6128 26.0015 13.4858 25.9458C13.3589 25.8892 13.2607 25.812 13.1914 25.7144C13.123 25.6167 13.0889 25.5059 13.0889 25.3818H13.3716C13.3716 25.5107 13.4189 25.6128 13.5137 25.688C13.6094 25.7622 13.7368 25.7993 13.896 25.7993C14.0444 25.7993 14.1582 25.769 14.2373 25.7085C14.3164 25.6479 14.356 25.5654 14.356 25.4609C14.356 25.3564 14.3193 25.2759 14.2461 25.2192C14.1729 25.1616 14.04 25.105 13.8477 25.0493ZM15.2832 25.77H16.2939V26H15.0005V23.8672H15.2832V25.77ZM16.8667 26H16.5957V24.415H16.8667V26ZM16.5737 23.9946C16.5737 23.9507 16.5869 23.9136 16.6133 23.8833C16.6406 23.853 16.6807 23.8379 16.7334 23.8379C16.7861 23.8379 16.8262 23.853 16.8535 23.8833C16.8809 23.9136 16.8945 23.9507 16.8945 23.9946C16.8945 24.0386 16.8809 24.0752 16.8535 24.1045C16.8262 24.1338 16.7861 24.1484 16.7334 24.1484C16.6807 24.1484 16.6406 24.1338 16.6133 24.1045C16.5869 24.0752 16.5737 24.0386 16.5737 23.9946ZM17.5581 24.415L17.5669 24.6143C17.688 24.4619 17.8462 24.3857 18.0415 24.3857C18.3765 24.3857 18.5454 24.5747 18.5483 24.9526V26H18.2773V24.9512C18.2764 24.8369 18.25 24.7524 18.1982 24.6978C18.1475 24.6431 18.0679 24.6157 17.9595 24.6157C17.8716 24.6157 17.7944 24.6392 17.728 24.686C17.6616 24.7329 17.6099 24.7944 17.5728 24.8706V26H17.3018V24.415H17.5581ZM19.3247 24.0312V24.415H19.6206V24.6245H19.3247V25.6074C19.3247 25.6709 19.3379 25.7188 19.3643 25.751C19.3906 25.7822 19.4355 25.7979 19.499 25.7979C19.5303 25.7979 19.5732 25.792 19.6279 25.7803V26C19.5566 26.0195 19.4873 26.0293 19.4199 26.0293C19.2988 26.0293 19.2075 25.9927 19.146 25.9194C19.0845 25.8462 19.0537 25.7422 19.0537 25.6074V24.6245H18.7651V24.415H19.0537V24.0312H19.3247Z" fill="white"/>
<path d="M12.1397 8.91524L15.3689 6.54316C15.4086 6.51414 15.4535 6.49887 15.4993 6.49887C15.545 6.49887 15.59 6.51414 15.6296 6.54316L18.8589 8.91524C18.8986 8.94451 18.9315 8.98658 18.9544 9.03721C18.9773 9.08783 18.9893 9.14523 18.9892 9.20363V13.9469C18.9891 14.0051 18.977 14.0623 18.9541 14.1127C18.9313 14.1632 18.8984 14.2051 18.8589 14.2344L15.6296 16.6064C15.59 16.6355 15.545 16.6507 15.4993 16.6507C15.4535 16.6507 15.4086 16.6355 15.3689 16.6064L12.1397 14.2344C12.1 14.2051 12.067 14.163 12.0441 14.1124C12.0213 14.0618 12.0093 14.0044 12.0094 13.946V9.20363C12.0093 9.14525 12.0214 9.08789 12.0442 9.03728C12.0671 8.98667 12.1 8.94458 12.1397 8.91524V8.91524ZM23.8943 11.0764L20.0368 2.53714C19.8965 2.22801 19.6373 2 19.3568 2H11.6424C11.3619 2 11.1027 2.22801 10.9625 2.53714L7.10492 11.0575C7.03616 11.2108 7 11.3843 7 11.5608C7 11.7374 7.03616 11.9108 7.10492 12.0642L10.9632 20.5341C11.1027 20.8423 11.3619 21 11.6424 21H19.3582C19.638 21 19.8965 20.8468 20.0375 20.5386L23.895 12.0552C23.9638 11.9069 24 11.7379 24 11.5658C24 11.3937 23.9638 11.2247 23.895 11.0764H23.8943ZM20.7005 15.1825C20.6992 15.2448 20.6852 15.3057 20.6598 15.3591C20.6345 15.4124 20.5987 15.4566 20.556 15.4871L15.6409 19.0939C15.5987 19.1246 15.5508 19.1408 15.5021 19.1408C15.4534 19.1408 15.4056 19.1246 15.3633 19.0939L10.4454 15.4871C10.4025 15.4567 10.3666 15.4126 10.3411 15.3592C10.3157 15.3058 10.3016 15.2449 10.3002 15.1825V7.96713C10.3002 7.84095 10.359 7.72469 10.4447 7.66251L15.3576 4.05573C15.4426 3.99265 15.5503 3.99265 15.6353 4.05573L20.5532 7.66341C20.5962 7.69372 20.6322 7.73774 20.6578 7.79114C20.6834 7.84455 20.6976 7.90551 20.6991 7.96803L20.7005 15.1825Z" fill="white"/>
</g>
<defs>
<clipPath id="clip0">
<rect width="30" height="30" fill="white"/>
</clipPath>
</defs>
</svg>
