<svg width="30" height="30" viewBox="0 0 30 30" fill="none" xmlns="http://www.w3.org/2000/svg">
<g clip-path="url(#clip0)">
<rect width="30" height="30" fill="white"/>
<rect y="0.000244141" width="30" height="30" fill="#C21325"/>
<path d="M13.7539 23.8672H14.0366V25.3774C14.0366 25.5815 13.9751 25.7412 13.8521 25.8564C13.73 25.9717 13.5669 26.0293 13.3628 26.0293C13.1509 26.0293 12.9858 25.9751 12.8677 25.8667C12.7495 25.7583 12.6904 25.6064 12.6904 25.4111H12.9717C12.9717 25.5332 13.0049 25.6284 13.0713 25.6968C13.1387 25.7651 13.2358 25.7993 13.3628 25.7993C13.479 25.7993 13.5728 25.7627 13.644 25.6895C13.7163 25.6162 13.7529 25.5137 13.7539 25.3818V23.8672ZM15.1309 26.0293C14.916 26.0293 14.7412 25.959 14.6064 25.8184C14.4717 25.6768 14.4043 25.4878 14.4043 25.2515V25.2017C14.4043 25.0444 14.4341 24.9043 14.4937 24.7812C14.5542 24.6572 14.6382 24.5605 14.7456 24.4912C14.854 24.4209 14.9712 24.3857 15.0972 24.3857C15.3032 24.3857 15.4634 24.4536 15.5776 24.5894C15.6919 24.7251 15.749 24.9194 15.749 25.1724V25.2852H14.6753C14.6792 25.4414 14.7246 25.5679 14.8115 25.6646C14.8994 25.7603 15.0107 25.8081 15.1455 25.8081C15.2412 25.8081 15.3223 25.7886 15.3887 25.7495C15.4551 25.7104 15.5132 25.6587 15.563 25.5942L15.7285 25.7231C15.5957 25.9272 15.3965 26.0293 15.1309 26.0293ZM15.0972 24.6084C14.9878 24.6084 14.896 24.6484 14.8218 24.7285C14.7476 24.8076 14.7017 24.9189 14.6841 25.0625H15.478V25.042C15.4702 24.9043 15.4331 24.7979 15.3667 24.7227C15.3003 24.6465 15.2104 24.6084 15.0972 24.6084ZM16.9868 25.5796C16.9868 25.5063 16.959 25.4497 16.9033 25.4097C16.8486 25.3687 16.7524 25.3335 16.6147 25.3042C16.478 25.2749 16.3691 25.2397 16.2881 25.1987C16.208 25.1577 16.1484 25.1089 16.1094 25.0522C16.0713 24.9956 16.0522 24.9282 16.0522 24.8501C16.0522 24.7202 16.1069 24.6104 16.2163 24.5205C16.3267 24.4307 16.4673 24.3857 16.6382 24.3857C16.8179 24.3857 16.9634 24.4321 17.0747 24.5249C17.187 24.6177 17.2432 24.7363 17.2432 24.8809H16.9707C16.9707 24.8066 16.939 24.7427 16.8755 24.689C16.813 24.6353 16.7339 24.6084 16.6382 24.6084C16.5396 24.6084 16.4624 24.6299 16.4067 24.6729C16.3511 24.7158 16.3232 24.772 16.3232 24.8413C16.3232 24.9067 16.3491 24.9561 16.4009 24.9893C16.4526 25.0225 16.5459 25.0542 16.6807 25.0845C16.8164 25.1147 16.9263 25.1509 17.0103 25.1929C17.0942 25.2349 17.1562 25.2856 17.1963 25.3452C17.2373 25.4038 17.2578 25.4756 17.2578 25.5605C17.2578 25.7021 17.2012 25.8159 17.0879 25.9019C16.9746 25.9868 16.8276 26.0293 16.647 26.0293C16.52 26.0293 16.4077 26.0068 16.3101 25.9619C16.2124 25.917 16.1357 25.8545 16.0801 25.7744C16.0254 25.6934 15.998 25.606 15.998 25.5122H16.269C16.2739 25.603 16.3101 25.6753 16.3774 25.729C16.4458 25.7817 16.5356 25.8081 16.647 25.8081C16.7495 25.8081 16.8315 25.7876 16.8931 25.7466C16.9556 25.7046 16.9868 25.6489 16.9868 25.5796ZM17.9785 24.0312V24.415H18.2744V24.6245H17.9785V25.6074C17.9785 25.6709 17.9917 25.7188 18.0181 25.751C18.0444 25.7822 18.0894 25.7979 18.1528 25.7979C18.1841 25.7979 18.2271 25.792 18.2817 25.7803V26C18.2104 26.0195 18.1411 26.0293 18.0737 26.0293C17.9526 26.0293 17.8613 25.9927 17.7998 25.9194C17.7383 25.8462 17.7075 25.7422 17.7075 25.6074V24.6245H17.4189V24.415H17.7075V24.0312H17.9785Z" fill="white"/>
<g clip-path="url(#clip1)">
<path d="M22.7611 11.3575C22.7603 10.8125 22.598 10.2832 22.2997 9.85217C22.0014 9.42111 21.5838 9.11253 21.1121 8.97458L23.2286 2H12.7403L14.8625 8.99675C14.4044 9.146 14.0018 9.45719 13.7153 9.88365C13.4287 10.3101 13.2735 10.8289 13.273 11.3623C13.273 12.188 13.6413 12.9195 14.203 13.3699C13.9771 13.726 13.7199 14.0559 13.4352 14.3548C12.9116 14.9121 12.2989 15.3544 11.629 15.6586C11.0382 15.2129 10.7825 14.4268 11.0134 13.7222C11.5159 13.5478 11.946 13.178 12.2258 12.6799C12.5055 12.1817 12.6165 11.5881 12.5386 11.0065C12.4607 10.4248 12.1991 9.89357 11.8011 9.50882C11.4031 9.12406 10.895 8.91124 10.3688 8.90888C9.78425 8.90971 9.22382 9.16963 8.81046 9.63162C8.39709 10.0936 8.16454 10.72 8.16379 11.3733C8.16379 12.0447 8.40958 12.6606 8.80341 13.1008C8.76941 13.1775 8.7347 13.2551 8.7 13.3375C8.37062 14.0967 7.99662 14.9548 7.85354 15.9175C7.56808 17.8428 8.03558 19.3882 9.16325 20.263C9.77357 20.7441 10.5024 21.0016 11.2493 21C12.5434 21 13.8574 20.274 15.1274 19.5695C16.0334 19.0691 16.9684 18.5466 17.8885 18.2933C18.2285 18.1999 18.5827 18.1453 18.9567 18.0843C19.7146 17.9632 20.4973 17.8373 21.2007 17.3797C21.6023 17.1224 21.9488 16.7701 22.2158 16.3474C22.4828 15.9247 22.6638 15.4418 22.7462 14.9327C22.8695 14.1458 22.7462 13.3541 22.4317 12.6606C22.6428 12.2806 22.7611 11.8357 22.7611 11.3567V11.3575ZM21.8013 11.3575C21.8013 12.1215 21.2453 12.7429 20.5617 12.7429C20.3043 12.7421 20.0535 12.6519 19.844 12.4848C19.6344 12.3177 19.4766 12.082 19.3922 11.8102C19.3077 11.5384 19.301 11.244 19.3729 10.9678C19.4447 10.6915 19.5916 10.447 19.7932 10.2682L19.7982 10.2626C19.8378 10.2294 19.8817 10.1961 19.9257 10.1637C19.9257 10.1637 19.9313 10.1637 19.9313 10.1581C19.9512 10.147 19.9703 10.1304 19.9901 10.1185C19.9951 10.1185 20 10.1138 20.005 10.1138C20.0248 10.1027 20.0496 10.0916 20.0737 10.0805C20.0985 10.0695 20.1233 10.0592 20.1431 10.0481C20.1481 10.0481 20.1523 10.0425 20.1573 10.0425C20.1771 10.037 20.197 10.0259 20.2168 10.0204C20.2217 10.0204 20.231 10.0148 20.2366 10.0148C20.2607 10.0093 20.2805 10.0038 20.3053 9.999H20.3103L20.384 9.98158C20.3889 9.98158 20.3981 9.98158 20.4038 9.97604C20.4236 9.97604 20.4427 9.9705 20.4626 9.9705H20.4874C20.5122 9.9705 20.537 9.96496 20.566 9.96496H20.6297C20.6496 9.96496 20.6652 9.96496 20.6843 9.9705H20.6942C20.7332 9.97604 20.7728 9.98158 20.8125 9.99267C21.0919 10.0596 21.3424 10.2314 21.5224 10.4796C21.7023 10.7278 21.8007 11.0373 21.8013 11.3567V11.3575ZM14.1138 3.10042H21.8559L20.0787 8.95875C20.005 8.97458 19.9313 9.00229 19.8577 9.03L17.9877 4.76688L16.112 9.00229C16.0383 8.97538 15.959 8.95875 15.8804 8.94213L14.1138 3.09963V3.10042ZM17.6328 10.8785C17.5422 10.3708 17.3096 9.9083 16.9684 9.55804L17.987 7.25904L19.0155 9.60792C18.7109 9.94833 18.4892 10.3838 18.4006 10.8785H17.6321H17.6328ZM15.1671 10.0093C15.1912 10.0038 15.211 9.99821 15.2358 9.99346H15.25C15.2705 9.98713 15.2896 9.98713 15.3095 9.98158H15.3293C15.3491 9.98158 15.364 9.97604 15.3831 9.97604H15.5751C15.5949 9.97604 15.6098 9.98158 15.6247 9.98158C15.6346 9.98158 15.6388 9.98158 15.6495 9.98713C15.6686 9.99267 15.6835 9.99267 15.7033 9.99821C15.7082 9.99821 15.7132 9.99821 15.7231 10.0038L15.7918 10.0196H15.7968C15.8166 10.0259 15.8365 10.0315 15.8556 10.0425C15.8605 10.0425 15.8655 10.0481 15.8754 10.0481C15.8903 10.0536 15.9101 10.0592 15.925 10.0695C15.93 10.0695 15.9349 10.075 15.9392 10.075C15.959 10.0861 15.9788 10.0916 15.9987 10.1027H16.0036C16.0264 10.1123 16.0478 10.1254 16.0674 10.1415H16.0723C16.0922 10.1526 16.112 10.1684 16.1318 10.1795C16.1368 10.1795 16.1368 10.185 16.141 10.185C16.1609 10.1961 16.1765 10.2128 16.1956 10.2238L16.2005 10.2294C16.2593 10.2785 16.3139 10.3339 16.3677 10.3885L16.3727 10.394C16.592 10.6523 16.7138 10.9951 16.7127 11.3512C16.7018 11.7107 16.5664 12.0515 16.3349 12.3015C16.1035 12.5515 15.7942 12.6913 15.4724 12.6913C15.1505 12.6913 14.8412 12.5515 14.6098 12.3015C14.3784 12.0515 14.243 11.7107 14.2321 11.3512C14.2313 11.0429 14.323 10.7432 14.4925 10.5C14.6619 10.2567 14.8995 10.084 15.1671 10.0093V10.0093ZM10.3235 9.9705C11.0077 9.9705 11.5638 10.5928 11.5638 11.3567C11.5638 12.1207 11.0077 12.7429 10.3242 12.7429C9.64066 12.7429 9.0832 12.1215 9.0832 11.3575C9.0832 10.5935 9.63995 9.9705 10.3235 9.9705V9.9705ZM21.7723 14.7403C21.7163 15.0922 21.5916 15.426 21.4069 15.7179C21.2223 16.0098 20.9823 16.2526 20.7041 16.4289C20.1672 16.7757 19.5077 16.8857 18.8136 16.9958C18.4233 17.0516 18.0356 17.1285 17.6519 17.2261C16.6284 17.5072 15.6445 18.0574 14.6897 18.5854C13.4685 19.2615 12.3167 19.8996 11.2493 19.8996C10.7019 19.9034 10.1676 19.7127 9.72354 19.3549C8.6405 18.5189 8.69433 16.9514 8.82254 16.0933C8.94083 15.2897 9.2702 14.5368 9.58541 13.8156C9.60525 13.7721 9.62012 13.7333 9.63995 13.689C9.74762 13.7333 9.86095 13.7665 9.97925 13.7887C9.79225 14.9548 10.3235 16.159 11.3577 16.7535L11.5447 16.8635L11.7458 16.7812C12.6072 16.44 13.4047 15.8843 14.1088 15.1417C14.4976 14.7365 14.8413 14.2803 15.1324 13.7832C15.2457 13.8045 15.359 13.8101 15.4724 13.8101C15.9596 13.8088 16.4328 13.6274 16.8182 13.2942C17.2036 12.961 17.4795 12.4947 17.603 11.9679H18.4297C18.5523 12.4955 18.8283 12.9626 19.2141 13.296C19.6 13.6294 20.074 13.8103 20.5617 13.8101C20.9697 13.8101 21.348 13.6834 21.6738 13.4697C21.8013 13.8813 21.841 14.3112 21.7723 14.7403Z" fill="white"/>
</g>
</g>
<defs>
<clipPath id="clip0">
<rect width="30" height="30" fill="white"/>
</clipPath>
<clipPath id="clip1">
<rect width="17" height="19" fill="white" transform="translate(7 2)"/>
</clipPath>
</defs>
</svg>
