<svg width="30" height="30" viewBox="0 0 30 30" fill="none" xmlns="http://www.w3.org/2000/svg">
<g clip-path="url(#clip0)">
<rect width="30" height="30" fill="white"/>
<rect y="0.000244141" width="30" height="30" fill="#430098"/>
<path d="M12.585 26H12.3022V25.0142H11.2271V26H10.9458V23.8672H11.2271V24.7842H12.3022V23.8672H12.585V26ZM13.6997 26.0293C13.4849 26.0293 13.3101 25.959 13.1753 25.8184C13.0405 25.6768 12.9731 25.4878 12.9731 25.2515V25.2017C12.9731 25.0444 13.0029 24.9043 13.0625 24.7812C13.123 24.6572 13.207 24.5605 13.3145 24.4912C13.4229 24.4209 13.54 24.3857 13.666 24.3857C13.8721 24.3857 14.0322 24.4536 14.1465 24.5894C14.2607 24.7251 14.3179 24.9194 14.3179 25.1724V25.2852H13.2441C13.248 25.4414 13.2935 25.5679 13.3804 25.6646C13.4683 25.7603 13.5796 25.8081 13.7144 25.8081C13.8101 25.8081 13.8911 25.7886 13.9575 25.7495C14.0239 25.7104 14.082 25.6587 14.1318 25.5942L14.2974 25.7231C14.1646 25.9272 13.9653 26.0293 13.6997 26.0293ZM13.666 24.6084C13.5566 24.6084 13.4648 24.6484 13.3906 24.7285C13.3164 24.8076 13.2705 24.9189 13.2529 25.0625H14.0469V25.042C14.0391 24.9043 14.002 24.7979 13.9355 24.7227C13.8691 24.6465 13.7793 24.6084 13.666 24.6084ZM15.3989 24.6582C15.3579 24.6514 15.3135 24.6479 15.2656 24.6479C15.0879 24.6479 14.9673 24.7236 14.9038 24.875V26H14.6328V24.415H14.8965L14.9009 24.5981C14.9897 24.4565 15.1157 24.3857 15.2788 24.3857C15.3315 24.3857 15.3716 24.3926 15.3989 24.4062V24.6582ZM15.5483 25.1929C15.5483 25.0376 15.5786 24.8979 15.6392 24.7739C15.7007 24.6499 15.7856 24.5542 15.894 24.4868C16.0034 24.4194 16.1279 24.3857 16.2676 24.3857C16.4834 24.3857 16.6577 24.4604 16.7905 24.6099C16.9243 24.7593 16.9912 24.958 16.9912 25.2061V25.2251C16.9912 25.3794 16.9614 25.5181 16.9019 25.6411C16.8433 25.7632 16.7588 25.8584 16.6484 25.9268C16.5391 25.9951 16.4131 26.0293 16.2705 26.0293C16.0557 26.0293 15.8813 25.9546 15.7476 25.8052C15.6147 25.6558 15.5483 25.458 15.5483 25.2119V25.1929ZM15.8208 25.2251C15.8208 25.4009 15.8613 25.542 15.9424 25.6484C16.0244 25.7549 16.1338 25.8081 16.2705 25.8081C16.4082 25.8081 16.5176 25.7544 16.5986 25.647C16.6797 25.5386 16.7202 25.3872 16.7202 25.1929C16.7202 25.019 16.6787 24.8784 16.5957 24.771C16.5137 24.6626 16.4043 24.6084 16.2676 24.6084C16.1338 24.6084 16.0259 24.6616 15.9438 24.7681C15.8618 24.8745 15.8208 25.0269 15.8208 25.2251ZM17.7734 25.2661L17.6035 25.4434V26H17.3325V23.75H17.6035V25.1108L17.7485 24.9365L18.2422 24.415H18.5718L17.9551 25.0771L18.6436 26H18.3257L17.7734 25.2661ZM19.8301 25.8433C19.7246 25.9673 19.5698 26.0293 19.3657 26.0293C19.1968 26.0293 19.0679 25.9805 18.979 25.8828C18.8911 25.7842 18.8467 25.6387 18.8457 25.4463V24.415H19.1167V25.439C19.1167 25.6792 19.2144 25.7993 19.4097 25.7993C19.6167 25.7993 19.7544 25.7222 19.8228 25.5679V24.415H20.0938V26H19.8359L19.8301 25.8433Z" fill="white"/>
<path d="M22.296 2H8.70481C7.75691 2 7 2.76 7 3.71V19.2908C7 20.2392 7.75691 21 8.70481 21H22.296C23.2431 21 24 20.2392 24 19.2908V3.71C24.0008 2.76 23.2439 2 22.296 2ZM23.0537 19.2908C23.0537 19.7175 22.7214 20.0508 22.296 20.0508H8.70481C8.27861 20.0508 7.94712 19.7175 7.94712 19.2908V3.71C7.94712 3.2825 8.27861 2.94921 8.70481 2.94921H22.296C22.7214 2.94921 23.0537 3.2825 23.0537 3.71V19.2908ZM11.262 18.1492L13.3931 16.25L11.262 14.35V18.1492ZM18.9337 10.455C18.5556 10.075 17.8453 9.6 16.6614 9.6C15.382 9.6 14.056 9.93329 13.1097 10.265V4.85H11.2155V13.0675L12.5414 12.45C12.5414 12.45 14.7198 11.4525 16.614 11.4525C17.5612 11.4525 17.7979 11.975 17.7979 12.45V18.15H19.6922V12.45C19.7388 12.3083 19.7388 11.2617 18.9337 10.455V10.455ZM16.4238 7.9375H18.3181C19.1705 6.94 19.5967 5.94171 19.7388 4.85H17.8453C17.6551 5.94171 17.1815 6.94 16.4238 7.9375Z" fill="white"/>
</g>
<defs>
<clipPath id="clip0">
<rect width="30" height="30" fill="white"/>
</clipPath>
</defs>
</svg>
