<svg width="30" height="30" viewBox="0 0 30 30" fill="none" xmlns="http://www.w3.org/2000/svg">
<g clip-path="url(#clip0)">
<rect width="30" height="30" fill="white"/>
<rect y="0.000244141" width="30" height="30" fill="#47A248"/>
<path d="M9.50146 23.8672L10.1987 25.6074L10.896 23.8672H11.2607V26H10.9795V25.1694L11.0059 24.2729L10.3057 26H10.0903L9.3916 24.2773L9.41943 25.1694V26H9.13818V23.8672H9.50146ZM11.6431 25.1929C11.6431 25.0376 11.6733 24.8979 11.7339 24.7739C11.7954 24.6499 11.8804 24.5542 11.9888 24.4868C12.0981 24.4194 12.2227 24.3857 12.3623 24.3857C12.5781 24.3857 12.7524 24.4604 12.8853 24.6099C13.019 24.7593 13.0859 24.958 13.0859 25.2061V25.2251C13.0859 25.3794 13.0562 25.5181 12.9966 25.6411C12.938 25.7632 12.8535 25.8584 12.7432 25.9268C12.6338 25.9951 12.5078 26.0293 12.3652 26.0293C12.1504 26.0293 11.9761 25.9546 11.8423 25.8052C11.7095 25.6558 11.6431 25.458 11.6431 25.2119V25.1929ZM11.9155 25.2251C11.9155 25.4009 11.9561 25.542 12.0371 25.6484C12.1191 25.7549 12.2285 25.8081 12.3652 25.8081C12.5029 25.8081 12.6123 25.7544 12.6934 25.647C12.7744 25.5386 12.8149 25.3872 12.8149 25.1929C12.8149 25.019 12.7734 24.8784 12.6904 24.771C12.6084 24.6626 12.499 24.6084 12.3623 24.6084C12.2285 24.6084 12.1206 24.6616 12.0386 24.7681C11.9565 24.8745 11.9155 25.0269 11.9155 25.2251ZM13.6821 24.415L13.6909 24.6143C13.812 24.4619 13.9702 24.3857 14.1655 24.3857C14.5005 24.3857 14.6694 24.5747 14.6724 24.9526V26H14.4014V24.9512C14.4004 24.8369 14.374 24.7524 14.3223 24.6978C14.2715 24.6431 14.1919 24.6157 14.0835 24.6157C13.9956 24.6157 13.9185 24.6392 13.8521 24.686C13.7856 24.7329 13.7339 24.7944 13.6968 24.8706V26H13.4258V24.415H13.6821ZM15.0166 25.1943C15.0166 24.9473 15.0737 24.751 15.188 24.6055C15.3022 24.459 15.4536 24.3857 15.6421 24.3857C15.8354 24.3857 15.9863 24.4541 16.0947 24.5908L16.1079 24.415H16.3555V25.9619C16.3555 26.167 16.2944 26.3286 16.1724 26.4468C16.0513 26.5649 15.8882 26.624 15.6831 26.624C15.5688 26.624 15.457 26.5996 15.3477 26.5508C15.2383 26.502 15.1548 26.4351 15.0972 26.3501L15.2378 26.1875C15.354 26.3311 15.4961 26.4028 15.6641 26.4028C15.7959 26.4028 15.8984 26.3657 15.9717 26.2915C16.0459 26.2173 16.083 26.1128 16.083 25.978V25.8418C15.9746 25.9668 15.8267 26.0293 15.6392 26.0293C15.4536 26.0293 15.3032 25.9546 15.188 25.8052C15.0737 25.6558 15.0166 25.4521 15.0166 25.1943ZM15.2891 25.2251C15.2891 25.4038 15.3257 25.5444 15.3989 25.647C15.4722 25.7485 15.5747 25.7993 15.7065 25.7993C15.8774 25.7993 16.0029 25.7217 16.083 25.5664V24.8428C16 24.6914 15.8755 24.6157 15.7095 24.6157C15.5776 24.6157 15.4746 24.667 15.4004 24.7695C15.3262 24.8721 15.2891 25.0239 15.2891 25.2251ZM16.6938 25.1929C16.6938 25.0376 16.7241 24.8979 16.7847 24.7739C16.8462 24.6499 16.9312 24.5542 17.0396 24.4868C17.1489 24.4194 17.2734 24.3857 17.4131 24.3857C17.6289 24.3857 17.8032 24.4604 17.936 24.6099C18.0698 24.7593 18.1367 24.958 18.1367 25.2061V25.2251C18.1367 25.3794 18.1069 25.5181 18.0474 25.6411C17.9888 25.7632 17.9043 25.8584 17.7939 25.9268C17.6846 25.9951 17.5586 26.0293 17.416 26.0293C17.2012 26.0293 17.0269 25.9546 16.8931 25.8052C16.7603 25.6558 16.6938 25.458 16.6938 25.2119V25.1929ZM16.9663 25.2251C16.9663 25.4009 17.0068 25.542 17.0879 25.6484C17.1699 25.7549 17.2793 25.8081 17.416 25.8081C17.5537 25.8081 17.6631 25.7544 17.7441 25.647C17.8252 25.5386 17.8657 25.3872 17.8657 25.1929C17.8657 25.019 17.8242 24.8784 17.7412 24.771C17.6592 24.6626 17.5498 24.6084 17.4131 24.6084C17.2793 24.6084 17.1714 24.6616 17.0894 24.7681C17.0073 24.8745 16.9663 25.0269 16.9663 25.2251ZM18.519 26V23.8672H19.1211C19.3066 23.8672 19.4707 23.9082 19.6133 23.9902C19.7559 24.0723 19.8657 24.189 19.9429 24.3403C20.021 24.4917 20.0605 24.6655 20.0615 24.8618V24.998C20.0615 25.1992 20.0225 25.3755 19.9443 25.5269C19.8672 25.6782 19.7563 25.7944 19.6118 25.8755C19.4683 25.9565 19.3008 25.998 19.1094 26H18.519ZM18.8003 24.0986V25.77H19.0962C19.313 25.77 19.4814 25.7026 19.6016 25.5679C19.7227 25.4331 19.7832 25.2412 19.7832 24.9922V24.8677C19.7832 24.6255 19.7261 24.4375 19.6118 24.3037C19.4985 24.1689 19.3374 24.1006 19.1284 24.0986H18.8003ZM20.4878 26V23.8672H21.1851C21.4165 23.8672 21.5903 23.915 21.7065 24.0107C21.8237 24.1064 21.8823 24.248 21.8823 24.4355C21.8823 24.5352 21.854 24.6235 21.7974 24.7007C21.7407 24.7769 21.6636 24.8359 21.5659 24.8779C21.6812 24.9102 21.772 24.9717 21.8384 25.0625C21.9058 25.1523 21.9395 25.2598 21.9395 25.3848C21.9395 25.5762 21.8774 25.7266 21.7534 25.8359C21.6294 25.9453 21.4541 26 21.2275 26H20.4878ZM20.769 25.0024V25.77H21.2334C21.3643 25.77 21.4673 25.7363 21.5425 25.6689C21.6187 25.6006 21.6567 25.5068 21.6567 25.3877C21.6567 25.1309 21.5171 25.0024 21.2378 25.0024H20.769ZM20.769 24.7769H21.1938C21.3169 24.7769 21.415 24.7461 21.4883 24.6846C21.5625 24.623 21.5996 24.5396 21.5996 24.4341C21.5996 24.3169 21.5654 24.2319 21.4971 24.1792C21.4287 24.1255 21.3247 24.0986 21.1851 24.0986H20.769V24.7769Z" fill="white"/>
<path d="M18.8532 9.56438C17.9153 5.14688 15.6981 3.69496 15.4599 3.14C15.2522 2.82808 15.0667 2.38475 14.9146 2C14.8879 2.39188 14.8738 2.54229 14.5265 2.93733C13.99 3.38542 11.2334 5.85225 11.0093 10.8698C10.8001 15.5502 14.1777 18.3392 14.6363 18.6947L14.6882 18.7343C14.7837 19.4877 14.8654 20.2431 14.9331 21H15.29C15.3746 20.183 15.5008 19.3723 15.6685 18.5696C15.9779 18.3353 16.1166 18.203 16.2992 18.021C17.1636 17.1678 17.8506 16.1305 18.3157 14.9763C18.7808 13.8221 19.0137 12.5766 18.9994 11.3203C19.0068 10.6759 18.9229 10.0045 18.8532 9.56438V9.56438ZM14.8938 16.0521C14.8938 16.0521 14.8938 9.48838 15.0978 9.48917C15.2559 9.48917 15.4614 17.956 15.4614 17.956C15.1787 17.9204 14.8938 16.5627 14.8938 16.0521Z" fill="white"/>
</g>
<defs>
<clipPath id="clip0">
<rect width="30" height="30" fill="white"/>
</clipPath>
</defs>
</svg>
